<mxfile host="app.diagrams.net" modified="2023-02-06T15:03:20.612Z" agent="5.0 (Windows NT 10.0; Win64; x64) AppleWebKit/537.36 (KHTML, like Gecko) Chrome/109.0.0.0 Safari/537.36 Edg/109.0.1518.78" etag="jwz15micEgX6kLo_0jmI" version="20.8.16" type="github">
  <diagram name="Page-1" id="M155SG4RqPdO91zbAepN">
    <mxGraphModel dx="1211" dy="711" grid="1" gridSize="10" guides="1" tooltips="1" connect="1" arrows="1" fold="1" page="1" pageScale="1" pageWidth="827" pageHeight="1169" math="0" shadow="0">
      <root>
        <mxCell id="0" />
        <mxCell id="1" parent="0" />
        <mxCell id="1CqNKHIIdMSI3EwBrzPz-101" value="" style="rounded=0;whiteSpace=wrap;html=1;dashed=1;dashPattern=8 8;" parent="1" vertex="1">
          <mxGeometry x="389.40999999999997" y="468" width="140" height="170" as="geometry" />
        </mxCell>
        <mxCell id="1CqNKHIIdMSI3EwBrzPz-4" style="edgeStyle=orthogonalEdgeStyle;rounded=0;orthogonalLoop=1;jettySize=auto;html=1;exitX=1;exitY=0.5;exitDx=0;exitDy=0;" parent="1" source="1CqNKHIIdMSI3EwBrzPz-2" edge="1">
          <mxGeometry relative="1" as="geometry">
            <mxPoint x="190" y="98" as="targetPoint" />
          </mxGeometry>
        </mxCell>
        <mxCell id="1CqNKHIIdMSI3EwBrzPz-2" value="Data from &lt;br&gt;Vehicle" style="rounded=0;whiteSpace=wrap;html=1;" parent="1" vertex="1">
          <mxGeometry x="20" y="78" width="120" height="40" as="geometry" />
        </mxCell>
        <mxCell id="1CqNKHIIdMSI3EwBrzPz-6" value="Azure Event Hubs FBL" style="text;html=1;strokeColor=none;fillColor=none;align=center;verticalAlign=middle;whiteSpace=wrap;rounded=0;" parent="1" vertex="1">
          <mxGeometry x="188.25" y="133" width="80" height="30" as="geometry" />
        </mxCell>
        <mxCell id="1CqNKHIIdMSI3EwBrzPz-8" value="" style="endArrow=classic;html=1;rounded=0;exitX=1;exitY=0.5;exitDx=0;exitDy=0;" parent="1" edge="1">
          <mxGeometry width="50" height="50" relative="1" as="geometry">
            <mxPoint x="260" y="98" as="sourcePoint" />
            <mxPoint x="320" y="98" as="targetPoint" />
          </mxGeometry>
        </mxCell>
        <mxCell id="1CqNKHIIdMSI3EwBrzPz-15" value="" style="endArrow=classic;html=1;rounded=0;exitX=1;exitY=0.5;exitDx=0;exitDy=0;" parent="1" edge="1">
          <mxGeometry width="50" height="50" relative="1" as="geometry">
            <mxPoint x="380" y="98" as="sourcePoint" />
            <mxPoint x="430" y="98" as="targetPoint" />
          </mxGeometry>
        </mxCell>
        <mxCell id="1CqNKHIIdMSI3EwBrzPz-16" value="Data Lake&lt;br&gt;(Gen2)" style="text;html=1;strokeColor=none;fillColor=none;align=center;verticalAlign=middle;whiteSpace=wrap;rounded=0;" parent="1" vertex="1">
          <mxGeometry x="425" y="118" width="80" height="40" as="geometry" />
        </mxCell>
        <mxCell id="1CqNKHIIdMSI3EwBrzPz-23" value="" style="endArrow=classic;startArrow=classic;html=1;rounded=0;entryX=0;entryY=0.5;entryDx=0;entryDy=0;" parent="1" edge="1">
          <mxGeometry width="50" height="50" relative="1" as="geometry">
            <mxPoint x="490" y="98.09210526315792" as="sourcePoint" />
            <mxPoint x="560" y="98.35000000000002" as="targetPoint" />
          </mxGeometry>
        </mxCell>
        <mxCell id="1CqNKHIIdMSI3EwBrzPz-24" value="" style="endArrow=classic;startArrow=classic;html=1;rounded=0;entryX=0.5;entryY=1;entryDx=0;entryDy=0;" parent="1" target="1CqNKHIIdMSI3EwBrzPz-16" edge="1">
          <mxGeometry width="50" height="50" relative="1" as="geometry">
            <mxPoint x="462.9100696643445" y="290" as="sourcePoint" />
            <mxPoint x="586" y="107.29999999999995" as="targetPoint" />
          </mxGeometry>
        </mxCell>
        <mxCell id="1CqNKHIIdMSI3EwBrzPz-25" value="" style="shape=image;verticalLabelPosition=bottom;labelBackgroundColor=default;verticalAlign=top;aspect=fixed;imageAspect=0;image=data:image/png,iVBORw0KGgoAAAANSUhEUgAAAGwAAABVCAYAAACsEwGoAAAAAXNSR0IArs4c6QAAAARnQU1BAACxjwv8YQUAAAAJcEhZcwAAFiUAABYlAUlSJPAAAAbgSURBVHhe7Z1bjBNVGID/mU47bXdhWZCbLLALiIoYEGJ8EOUBiReUmKiJigZjIjGRaEw0ROTBmGjAB68xSkwMRgPxkmg0Ks9GHxC5GBCEsF6QBYRFcHfb3U47M55/5l932+1cur1sz/b/st3+/2lnZzNfz5zLtKeKLQBGGlS6ZySBhUkGC5MMFiYZLEwyWJhksDDJYGGSwcIkg4VJBguTjFHPJdrZbjBTP4NtnBTxOeAZyeIokQQosVmg6u0QaV5OpaOnZGHG2e2QPbcDrP5jVMKERo2D1no76G1bRNhBhaURWpg1cAL6jz0g7juphCkHvW0zxGY9Q1l4QgkzUweh/9d7wM5dpBKmEkSnrYd4x2uUhSNQmG2cgdShm4WsC1SSj5pYCEp0KmXMCOwsWKnDYFtpKshHb3tO1LRnKQsmUFj68CpRww5Q5qLqs0Gf8yJEWlaJRrWZShk/rPQRMP5+T7T/H1DJEMmrPhfHciVl/vgKy577EAZ+f4oyl+jUdRCf9xZlTKmYfXtF83Iv2GYvlWBfZD40LdlLmT++47BM11aKXNT4ApZVJpHm60Fv30aZC3bkst2fUuaPpzArLc67ov0aQoH4gu0UM+UQvex+iEzMPwXmLu2myB9PYWZfQbsVnweRpusoY8olOvVBilysguPthXcNM05S5KJorRQxlUDRWihysYxT4nfwkNhTGE435aE2UcBUghG9azsnfv6hxBvvTseIzmOwfaZMbIsCb7yFMXUJC5MMFiYZLKwEzJ4fIHfxG+feNv+l0trCwkJg9nwPqYNLIX30Lug//pBznzqwFIyz79IzagcLCwBlpY+uBSuTPy7FGpb5czNkTuVPM1UbFhbAwG8bKSqO0bXNkVorWJgPKKKwZhUjJ9q0WsHCfDDThyjyxwr5vErAwnywcz0U+VPLHiMLkwwWJhksTDJYmGSwMMlgYZIhjTAcwGa7dzkzC3jDSdhGRAph2fM7IX1oJQx0PuHM3eHNnYQdOcc33ql7YTg9hPN5xQan+Fj/8YcpawzqXljQ5CtOCxln36Fs/FPXwvB0F+aUhxcUG4W6FmaHbJ/G6urvWCBFp4MZgoVJRkMIcy/nPw99P3VA757Jzs0ZEtTwOlalGPfCUBaO4bAnObytwyFBSpTjGE8mxr2wgc6Nvj1NrHkyDb7HtTCsUbmLX1NWHHxO9vwuyuqfcS3MSoVro8ze2r3rqVwaotMxnmBhksHCJIOFSQYLk4yaCcPuNc4u4GwDfhIEL5s02sXHSlATYTg4xQuNOLuA4x4UNXgVWbaZhrHGW5gap4CwcxSUBgrxusCI8mSbaagYdpaCYagJCrzxFKZGp1Pk4rWaWxAoxA+UZtT4M1b1gJXtpshFUZOhFlrzFKbobRS54AqkthnuwwGDoAy8BVG4iEsjYPbuochFibdT5I+nMG3SavFbcRMiF3IBq0FCTw010CV+B2sAchc+o8TFPd7BeNcwbTJEJt5EmUvm9Ouhagzjj3Mcc5coc4lOuY8if7w7HQL98qcpcrGNLtHbW08ZMxpyF74Ao+sVyly0SbeCmlxEmT++wnCVzMKVMs2e7yD9y2oxrvqWSpgwWJk/3OHNiUepZAh99haKgvEVhiTmbx+xkpvZt0/UtHXQd2AxDJzYAJlTW51345p9++kZjHH6DfddykJS+shtkDq4rOjwBhe7VJPXUBZMoDAlOg0SV35StMtpG6chKxpPrOLOp+lT++gRxjjzpvs5ACHJ7P2RSvOJzdgAsemPURaOQGEIfqNBctFuUGIzqYQpF1xNW5+bv0RvGEIJQ7BRbF6y31lNm5c9Hz3a5LXOgsylLH0+nNDCHFQdYjM3QvOyY+I0+bGInwRtyt2i+79C3G4ElWvg/0Qm3OAcE23SLRCd9ojTVjUv74TEFTucVbRHS2nChoEDPX3OC5BY8D4kr/5S3L4CrfVOepRJLNzpHBNs/+MdrzptVSWW4R21MGZsYGGSURfClMhEiuoLRau//6uqwtSmaynyx+t5ij6HIn/UWLjneeG1fSQZ7v+PTFhBUfWpqjAl0hKq9ngdMFUIU5OLKfMGe2PFwN5rmP17bY8vpDDbax7bV4OqnxLj89+mqDh4QPT2lykbSSJgezzYhd+yMJyg/fttjy+4oO211jucF0atqLowrXUNxGY8Tlk+KAsPCB4YL1RxWsJhA34FViH4dxMLP6KsOM7+Z22iLB+UFZ8XJGQN6HNfKlrTcP9BQitN6K9ULBd8Aw6uket8JksIwvYh1rbJOe2FBf8GrmGIgiPidIUyw+K+8WeXs//BU61fzSwEt8f9W5m/nM6IJmpVKfuvFDUTxlSGuujWM+FhYVIB8B+fwHq/3h/HpAAAAABJRU5ErkJggg==;" parent="1" vertex="1">
          <mxGeometry x="704" y="75.17000000000002" width="58" height="45.65" as="geometry" />
        </mxCell>
        <mxCell id="1CqNKHIIdMSI3EwBrzPz-26" value="" style="endArrow=classic;html=1;rounded=0;entryX=0;entryY=0.5;entryDx=0;entryDy=0;" parent="1" edge="1">
          <mxGeometry width="50" height="50" relative="1" as="geometry">
            <mxPoint x="634" y="98" as="sourcePoint" />
            <mxPoint x="698" y="97.995" as="targetPoint" />
          </mxGeometry>
        </mxCell>
        <mxCell id="1CqNKHIIdMSI3EwBrzPz-27" value="Power BI&lt;br&gt;(visualize, quick wins)" style="text;html=1;strokeColor=none;fillColor=none;align=center;verticalAlign=middle;whiteSpace=wrap;rounded=0;" parent="1" vertex="1">
          <mxGeometry x="692" y="118" width="80" height="60" as="geometry" />
        </mxCell>
        <mxCell id="1CqNKHIIdMSI3EwBrzPz-28" value="Azure Machine Learning" style="text;html=1;strokeColor=none;fillColor=none;align=center;verticalAlign=middle;whiteSpace=wrap;rounded=0;" parent="1" vertex="1">
          <mxGeometry x="403" y="344.07" width="120" height="40" as="geometry" />
        </mxCell>
        <mxCell id="1CqNKHIIdMSI3EwBrzPz-33" value="" style="endArrow=classic;html=1;rounded=0;exitX=0.5;exitY=1;exitDx=0;exitDy=0;" parent="1" source="1CqNKHIIdMSI3EwBrzPz-28" edge="1">
          <mxGeometry width="50" height="50" relative="1" as="geometry">
            <mxPoint x="267" y="520" as="sourcePoint" />
            <mxPoint x="463" y="460" as="targetPoint" />
          </mxGeometry>
        </mxCell>
        <mxCell id="1CqNKHIIdMSI3EwBrzPz-34" value="Azure Synapse Analytics" style="text;html=1;strokeColor=none;fillColor=none;align=center;verticalAlign=middle;whiteSpace=wrap;rounded=0;" parent="1" vertex="1">
          <mxGeometry x="496" y="38.7" width="207" height="40" as="geometry" />
        </mxCell>
        <mxCell id="1CqNKHIIdMSI3EwBrzPz-36" value="deploy" style="text;html=1;strokeColor=none;fillColor=none;align=center;verticalAlign=middle;whiteSpace=wrap;rounded=0;" parent="1" vertex="1">
          <mxGeometry x="411" y="404" width="60" height="30" as="geometry" />
        </mxCell>
        <mxCell id="1CqNKHIIdMSI3EwBrzPz-38" value="" style="endArrow=classic;startArrow=none;html=1;rounded=0;" parent="1" edge="1">
          <mxGeometry width="50" height="50" relative="1" as="geometry">
            <mxPoint x="480" y="333" as="sourcePoint" />
            <mxPoint x="609" y="460" as="targetPoint" />
            <Array as="points">
              <mxPoint x="610" y="333" />
            </Array>
          </mxGeometry>
        </mxCell>
        <mxCell id="1CqNKHIIdMSI3EwBrzPz-39" value="" style="endArrow=classic;startArrow=none;html=1;rounded=0;" parent="1" source="1CqNKHIIdMSI3EwBrzPz-41" edge="1">
          <mxGeometry width="50" height="50" relative="1" as="geometry">
            <mxPoint x="485.59" y="310" as="sourcePoint" />
            <mxPoint x="730" y="260" as="targetPoint" />
          </mxGeometry>
        </mxCell>
        <mxCell id="1CqNKHIIdMSI3EwBrzPz-46" value="Azure Container Registry" style="text;html=1;strokeColor=none;fillColor=none;align=center;verticalAlign=middle;whiteSpace=wrap;rounded=0;" parent="1" vertex="1">
          <mxGeometry x="549" y="514.73" width="120" height="40" as="geometry" />
        </mxCell>
        <mxCell id="1CqNKHIIdMSI3EwBrzPz-88" value="" style="aspect=fixed;html=1;points=[];align=center;image;fontSize=12;image=img/lib/azure2/networking/Virtual_Networks.svg;" parent="1" vertex="1">
          <mxGeometry x="472.75" y="620" width="50.25" height="30" as="geometry" />
        </mxCell>
        <mxCell id="1CqNKHIIdMSI3EwBrzPz-89" value="" style="aspect=fixed;html=1;points=[];align=center;image;fontSize=12;image=img/lib/azure2/networking/Load_Balancers.svg;" parent="1" vertex="1">
          <mxGeometry x="393" y="556.02" width="52" height="52" as="geometry" />
        </mxCell>
        <mxCell id="1CqNKHIIdMSI3EwBrzPz-90" value="" style="aspect=fixed;html=1;points=[];align=center;image;fontSize=12;image=img/lib/azure2/security/Key_Vaults.svg;" parent="1" vertex="1">
          <mxGeometry x="750" y="224" width="54" height="54" as="geometry" />
        </mxCell>
        <mxCell id="1CqNKHIIdMSI3EwBrzPz-91" value="" style="aspect=fixed;html=1;points=[];align=center;image;fontSize=12;image=img/lib/azure2/networking/Private_Endpoint.svg;" parent="1" vertex="1">
          <mxGeometry x="478.82" y="481.15" width="38.18" height="35" as="geometry" />
        </mxCell>
        <mxCell id="1CqNKHIIdMSI3EwBrzPz-92" value="" style="aspect=fixed;html=1;points=[];align=center;image;fontSize=12;image=img/lib/azure2/management_governance/Application_Insights.svg;" parent="1" vertex="1">
          <mxGeometry x="757" y="297.37" width="40" height="57.27" as="geometry" />
        </mxCell>
        <mxCell id="1CqNKHIIdMSI3EwBrzPz-93" value="" style="aspect=fixed;html=1;points=[];align=center;image;fontSize=12;image=img/lib/azure2/iot/Event_Hubs.svg;" parent="1" vertex="1">
          <mxGeometry x="200" y="72.69999999999999" width="56.5" height="50.6" as="geometry" />
        </mxCell>
        <mxCell id="1CqNKHIIdMSI3EwBrzPz-95" value="" style="aspect=fixed;html=1;points=[];align=center;image;fontSize=12;image=img/lib/azure2/analytics/Azure_Synapse_Analytics.svg;" parent="1" vertex="1">
          <mxGeometry x="330" y="69.78" width="51.37" height="59.08" as="geometry" />
        </mxCell>
        <mxCell id="1CqNKHIIdMSI3EwBrzPz-96" value="" style="aspect=fixed;html=1;points=[];align=center;image;fontSize=12;image=img/lib/azure2/ai_machine_learning/Machine_Learning.svg;" parent="1" vertex="1">
          <mxGeometry x="440.41" y="296.07" width="45.18" height="48" as="geometry" />
        </mxCell>
        <mxCell id="1CqNKHIIdMSI3EwBrzPz-98" value="" style="aspect=fixed;html=1;points=[];align=center;image;fontSize=12;image=img/lib/azure2/containers/Container_Registries.svg;" parent="1" vertex="1">
          <mxGeometry x="585.51" y="472.58" width="46.99" height="42.15" as="geometry" />
        </mxCell>
        <mxCell id="1CqNKHIIdMSI3EwBrzPz-99" value="" style="aspect=fixed;html=1;points=[];align=center;image;fontSize=12;image=img/lib/azure2/containers/Kubernetes_Services.svg;" parent="1" vertex="1">
          <mxGeometry x="393.66999999999996" y="481.15" width="51.33" height="45.29" as="geometry" />
        </mxCell>
        <mxCell id="1CqNKHIIdMSI3EwBrzPz-100" value="" style="sketch=0;aspect=fixed;html=1;points=[];align=center;image;fontSize=12;image=img/lib/mscae/Data_Lake.svg;" parent="1" vertex="1">
          <mxGeometry x="440.41" y="68" width="38" height="50" as="geometry" />
        </mxCell>
        <mxCell id="1CqNKHIIdMSI3EwBrzPz-108" value="" style="endArrow=classic;html=1;rounded=0;" parent="1" source="1CqNKHIIdMSI3EwBrzPz-99" target="1CqNKHIIdMSI3EwBrzPz-89" edge="1">
          <mxGeometry width="50" height="50" relative="1" as="geometry">
            <mxPoint x="499.40999999999997" y="458" as="sourcePoint" />
            <mxPoint x="298.90999999999997" y="468" as="targetPoint" />
          </mxGeometry>
        </mxCell>
        <mxCell id="1CqNKHIIdMSI3EwBrzPz-114" value="" style="endArrow=classic;html=1;rounded=0;entryX=0.913;entryY=0.386;entryDx=0;entryDy=0;entryPerimeter=0;" parent="1" source="1CqNKHIIdMSI3EwBrzPz-98" target="1CqNKHIIdMSI3EwBrzPz-91" edge="1">
          <mxGeometry width="50" height="50" relative="1" as="geometry">
            <mxPoint x="410" y="399" as="sourcePoint" />
            <mxPoint x="460" y="349" as="targetPoint" />
          </mxGeometry>
        </mxCell>
        <mxCell id="1CqNKHIIdMSI3EwBrzPz-115" value="" style="endArrow=none;startArrow=classic;html=1;rounded=0;" parent="1" target="1CqNKHIIdMSI3EwBrzPz-41" edge="1">
          <mxGeometry width="50" height="50" relative="1" as="geometry">
            <mxPoint x="485.5899999999999" y="310" as="sourcePoint" />
            <mxPoint x="730" y="260" as="targetPoint" />
          </mxGeometry>
        </mxCell>
        <mxCell id="1CqNKHIIdMSI3EwBrzPz-41" value="authenticate" style="text;html=1;strokeColor=none;fillColor=none;align=center;verticalAlign=middle;whiteSpace=wrap;rounded=0;" parent="1" vertex="1">
          <mxGeometry x="578" y="266.07" width="60" height="30" as="geometry" />
        </mxCell>
        <mxCell id="MEqfM8XbZI-IZrJ0o0Ex-1" value="" style="aspect=fixed;html=1;points=[];align=center;image;fontSize=12;image=img/lib/azure2/analytics/Azure_Synapse_Analytics.svg;" vertex="1" parent="1">
          <mxGeometry x="573.8199999999999" y="69.78" width="51.37" height="59.08" as="geometry" />
        </mxCell>
        <mxCell id="MEqfM8XbZI-IZrJ0o0Ex-3" value="" style="sketch=0;aspect=fixed;html=1;points=[];align=center;image;fontSize=12;image=img/lib/mscae/Azure_Data_Explorer_Clusters.svg;" vertex="1" parent="1">
          <mxGeometry x="200" y="304.64" width="50" height="50" as="geometry" />
        </mxCell>
        <mxCell id="MEqfM8XbZI-IZrJ0o0Ex-4" value="" style="endArrow=classic;startArrow=classic;html=1;rounded=0;exitX=0.913;exitY=0.527;exitDx=0;exitDy=0;exitPerimeter=0;" edge="1" parent="1" source="MEqfM8XbZI-IZrJ0o0Ex-3">
          <mxGeometry width="50" height="50" relative="1" as="geometry">
            <mxPoint x="390" y="390" as="sourcePoint" />
            <mxPoint x="440" y="331" as="targetPoint" />
          </mxGeometry>
        </mxCell>
        <mxCell id="MEqfM8XbZI-IZrJ0o0Ex-5" value="" style="aspect=fixed;html=1;points=[];align=center;image;fontSize=12;image=img/lib/azure2/networking/Private_Endpoint.svg;" vertex="1" parent="1">
          <mxGeometry x="711.8199999999999" y="210" width="38.18" height="35" as="geometry" />
        </mxCell>
        <mxCell id="MEqfM8XbZI-IZrJ0o0Ex-6" value="" style="aspect=fixed;html=1;points=[];align=center;image;fontSize=12;image=img/lib/azure2/networking/Private_Endpoint.svg;" vertex="1" parent="1">
          <mxGeometry x="491.2299999999999" y="123.3" width="38.18" height="35" as="geometry" />
        </mxCell>
      </root>
    </mxGraphModel>
  </diagram>
</mxfile>
